<svg width="76" height="18" viewBox="0 0 76 18" fill="none" xmlns="http://www.w3.org/2000/svg">
<path fill-rule="evenodd" clip-rule="evenodd" d="M15.574 4.42C17.0127 4.42 18.187 4.836 19.097 5.668C20.007 6.5 20.462 7.69599 20.462 9.256V17.68H19.162V9.386C19.162 8.13799 18.824 7.189 18.148 6.539C17.472 5.889 16.562 5.564 15.418 5.564C14.586 5.564 13.8277 5.76333 13.143 6.162C12.4583 6.56067 11.9123 7.11533 11.505 7.826C11.0977 8.53667 10.894 9.334 10.894 10.218V17.706H9.594V9.412C9.594 8.16399 9.256 7.215 8.58 6.565C7.904 5.915 6.99401 5.59 5.85 5.59C5.05266 5.59 4.30734 5.78066 3.614 6.162C2.92066 6.54334 2.36167 7.098 1.937 7.826C1.51233 8.554 1.3 9.39466 1.3 10.348V17.706H0V4.706H1.17L1.248 7.306C1.664 6.40466 2.29666 5.70267 3.146 5.2C3.99534 4.69733 4.93999 4.446 5.98 4.446C7.08934 4.446 8.06 4.706 8.892 5.226C9.724 5.746 10.3047 6.5 10.634 7.488C10.9807 6.53466 11.6177 5.785 12.545 5.239C13.4723 4.693 14.482 4.42 15.574 4.42ZM33.462 16.848C33.8953 16.848 34.2333 16.7873 34.476 16.666L34.398 17.706C34.086 17.8793 33.6613 17.966 33.124 17.966C32.5173 17.966 32.0233 17.8013 31.642 17.472C31.2607 17.1427 31.044 16.5707 30.992 15.756C30.5933 16.4493 29.952 16.991 29.068 17.381C28.184 17.771 27.2567 17.966 26.286 17.966C25.0033 17.966 23.9763 17.68 23.205 17.108C22.4337 16.536 22.048 15.7213 22.048 14.664C22.048 12.6533 23.6947 11.3533 26.988 10.764L30.966 10.062V8.918C30.966 7.878 30.6583 7.06334 30.043 6.474C29.4277 5.88466 28.5567 5.59 27.43 5.59C25.3673 5.59 23.9807 6.50866 23.27 8.346L22.282 7.618C22.6633 6.59533 23.296 5.811 24.18 5.265C25.064 4.719 26.1473 4.446 27.43 4.446C28.938 4.446 30.121 4.81433 30.979 5.551C31.837 6.28767 32.266 7.35799 32.266 8.762V15.47C32.266 16.3887 32.6647 16.848 33.462 16.848ZM26.416 16.822C27.144 16.822 27.8547 16.6963 28.548 16.445C29.2413 16.1937 29.8177 15.821 30.277 15.327C30.7363 14.833 30.966 14.2393 30.966 13.546V11.128L27.404 11.778C26 12.038 24.9773 12.402 24.336 12.87C23.6947 13.338 23.374 13.936 23.374 14.664C23.374 15.3573 23.6427 15.8903 24.18 16.263C24.7173 16.6357 25.4627 16.822 26.416 16.822ZM43.758 17.706L39.364 12.012L35.048 17.706H33.488L38.636 11.05L33.748 4.706H35.412L39.494 10.01L43.446 4.706H45.006L40.222 10.972L45.396 17.706H43.758ZM46.982 2.184C46.6527 2.184 46.3883 2.08433 46.189 1.885C45.9897 1.68567 45.89 1.42133 45.89 1.092C45.89 0.762665 45.9897 0.498334 46.189 0.299C46.3883 0.0996657 46.6527 0 46.982 0C47.3113 0 47.5757 0.0996657 47.775 0.299C47.9743 0.498334 48.074 0.762665 48.074 1.092C48.074 1.42133 47.9743 1.68567 47.775 1.885C47.5757 2.08433 47.3113 2.184 46.982 2.184ZM47.632 17.706H46.332V4.706H47.632V17.706ZM56.42 4.446C57.9107 4.446 59.111 4.862 60.021 5.694C60.931 6.526 61.386 7.72199 61.386 9.282V17.706H60.086V9.698C60.086 8.31133 59.748 7.28 59.072 6.604C58.396 5.928 57.4687 5.59 56.29 5.59C55.458 5.59 54.6867 5.78066 53.976 6.162C53.2653 6.54334 52.6977 7.098 52.273 7.826C51.8483 8.554 51.636 9.40333 51.636 10.374V17.706H50.336V4.706H51.506L51.558 7.332C51.974 6.396 52.611 5.681 53.469 5.187C54.327 4.693 55.3107 4.446 56.42 4.446ZM69.29 4.446C71.214 4.446 72.7263 5.04833 73.827 6.253C74.9277 7.45767 75.478 9.10866 75.478 11.206C75.478 13.3033 74.9277 14.9543 73.827 16.159C72.7263 17.3637 71.214 17.966 69.29 17.966C67.366 17.966 65.8537 17.3637 64.753 16.159C63.6523 14.9543 63.102 13.3033 63.102 11.206C63.102 9.10866 63.6523 7.45767 64.753 6.253C65.8537 5.04833 67.366 4.446 69.29 4.446ZM69.29 5.564C67.7647 5.564 66.5687 6.06666 65.702 7.072C64.8353 8.07734 64.402 9.45533 64.402 11.206C64.402 12.9567 64.8353 14.3347 65.702 15.34C66.5687 16.3453 67.7647 16.848 69.29 16.848C70.8153 16.848 72.0113 16.3453 72.878 15.34C73.7447 14.3347 74.178 12.9567 74.178 11.206C74.178 9.45533 73.7447 8.07734 72.878 7.072C72.0113 6.06666 70.8153 5.564 69.29 5.564Z" fill="#535353"/>
</svg>
